<svg width="113" height="32" viewBox="0 0 113 32" fill="none" xmlns="http://www.w3.org/2000/svg">
<path d="M32 16L21.6569 5.65685C18.5327 2.53266 13.4673 2.53266 10.3432 5.65685L1.89636e-06 16L3.2 19.2L16 6.4L28.8 19.2L32 16Z" fill="white"/>
<path d="M26.5377 21.4166L21.6549 16.5338C18.5307 13.4096 13.4654 13.4096 10.3412 16.5338L5.45844 21.4166L8.46975 24.4279L15.998 16.8996L23.5263 24.4279L26.5377 21.4166Z" fill="white"/>
<path d="M21.4363 26.4304L20.8833 25.8775C18.1497 23.1438 13.7175 23.1438 10.9838 25.8775L10.4309 26.4304L13.1823 29.1817L15.9336 26.4304L18.6849 29.1817L21.4363 26.4304Z" fill="white"/>
<path d="M51.16 26H47.23V8.33H40.21V5H58.15V8.33H51.16V26ZM63.1321 26.54C61.6721 26.54 60.3721 26.23 59.2321 25.61C58.0921 24.97 57.2021 24.07 56.5621 22.91C55.9421 21.73 55.6321 20.34 55.6321 18.74C55.6321 17.16 55.9521 15.78 56.5921 14.6C57.2321 13.42 58.1121 12.51 59.2321 11.87C60.3721 11.21 61.6721 10.88 63.1321 10.88C64.5921 10.88 65.8921 11.2 67.0321 11.84C68.1721 12.48 69.0621 13.4 69.7021 14.6C70.3421 15.78 70.6621 17.16 70.6621 18.74C70.6621 20.34 70.3421 21.73 69.7021 22.91C69.0621 24.07 68.1721 24.97 67.0321 25.61C65.8921 26.23 64.5921 26.54 63.1321 26.54ZM63.1321 23.66C64.2921 23.66 65.2121 23.23 65.8921 22.37C66.5921 21.49 66.9421 20.28 66.9421 18.74C66.9421 17.18 66.5921 15.97 65.8921 15.11C65.1921 14.23 64.2721 13.79 63.1321 13.79C61.9921 13.79 61.0721 14.23 60.3721 15.11C59.6921 15.97 59.3521 17.18 59.3521 18.74C59.3521 20.28 59.6921 21.49 60.3721 22.37C61.0521 23.23 61.9721 23.66 63.1321 23.66ZM73.2522 26V11.36H76.9122V12.02C76.9122 12.56 76.8722 13.04 76.7922 13.46C77.2122 12.72 77.7722 12.11 78.4722 11.63C79.1722 11.13 80.0222 10.88 81.0222 10.88C81.8822 10.88 82.6622 11.16 83.3622 11.72C84.0622 12.26 84.5622 12.89 84.8622 13.61C85.3222 12.85 85.9722 12.21 86.8122 11.69C87.6722 11.15 88.6022 10.88 89.6022 10.88C90.5822 10.88 91.4522 11.13 92.2122 11.63C92.9722 12.11 93.5622 12.8 93.9822 13.7C94.4222 14.58 94.6422 15.61 94.6422 16.79V26H90.9822V17.33C90.9822 16.25 90.7722 15.39 90.3522 14.75C89.9322 14.11 89.3322 13.79 88.5522 13.79C87.7522 13.79 87.0822 14.13 86.5422 14.81C86.0222 15.49 85.7622 16.38 85.7622 17.48V26H82.1022V17.33C82.1022 16.23 81.8922 15.37 81.4722 14.75C81.0722 14.11 80.4722 13.79 79.6722 13.79C78.8722 13.79 78.2122 14.13 77.6922 14.81C77.1722 15.47 76.9122 16.36 76.9122 17.48V26H73.2522ZM104.543 26.54C103.083 26.54 101.783 26.23 100.643 25.61C99.5231 24.99 98.6431 24.09 98.0031 22.91C97.3831 21.73 97.0731 20.31 97.0731 18.65C97.0731 17.13 97.3831 15.78 98.0031 14.6C98.6431 13.42 99.5231 12.51 100.643 11.87C101.763 11.21 103.023 10.88 104.423 10.88C106.643 10.88 108.373 11.59 109.613 13.01C110.853 14.43 111.473 16.35 111.473 18.77V19.58H100.823C100.843 20.76 101.193 21.74 101.873 22.52C102.553 23.28 103.443 23.66 104.543 23.66C105.363 23.66 106.053 23.45 106.613 23.03C107.193 22.59 107.543 21.99 107.663 21.23H111.383C111.283 22.23 110.933 23.14 110.333 23.96C109.753 24.76 108.963 25.39 107.963 25.85C106.963 26.31 105.823 26.54 104.543 26.54ZM107.723 16.94C107.683 15.94 107.363 15.14 106.763 14.54C106.163 13.92 105.373 13.61 104.393 13.61C103.413 13.61 102.593 13.92 101.933 14.54C101.273 15.16 100.893 15.96 100.793 16.94H107.723Z" fill="white"/>
</svg>
